<svg xmlns="http://www.w3.org/2000/svg" width="100.642" height="18.282" viewBox="0 0 100.642 18.282">
  <g id="그룹_359" data-name="그룹 359" transform="translate(-232.242 -551.524)">
    <path id="패스_350" data-name="패스 350" d="M541.013,559.265c0-.035,0-.07,0-.106a7.628,7.628,0,1,0-6.263,7.512,5.272,5.272,0,0,1-1.823,2.529c-.485.421-.28.841.624.452a12.765,12.765,0,0,0,5.581-4.589,9.924,9.924,0,0,0,1.881-5.8Z" transform="translate(-208.129)" fill="#535762"/>
    <path id="패스_351" data-name="패스 351" d="M240.394,562.447c0-.736-.45-1.169-1.929-1.546l-2.037-.528c-2.036-.509-3.773-1.7-3.773-4.073s2.208-4.451,6.153-4.451a8.533,8.533,0,0,1,4.759,1.188c1.8,1.245.043,3.772-1.929,2.621a5.618,5.618,0,0,0-2.723-.792c-1.243,0-2.144.528-2.144,1.226,0,.566.193,1,1.458,1.339l1.994.509c2.465.6,4.352,1.792,4.352,4.149,0,2.753-2.379,4.922-6.367,4.922a8.364,8.364,0,0,1-5.3-1.546c-1.8-1.509.386-3.866,2.358-2.565a5.417,5.417,0,0,0,2.916.886C239.879,563.786,240.394,563.107,240.394,562.447Z" transform="translate(0 -0.23)" fill="#535762"/>
    <path id="패스_352" data-name="패스 352" d="M282.01,553.281c0-.962,1.05-1.433,2.015-1.433.986,0,2.015.471,2.015,1.433v4.168h5.424v-4.168c0-.962,1.05-1.433,2.036-1.433s2.015.471,2.015,1.433v12.183c0,.981-1.029,1.471-1.994,1.49-1.008.019-2.058-.452-2.058-1.49v-4.979H286.04v4.979c0,.981-1.029,1.471-1.994,1.49-1.008.019-2.036-.452-2.036-1.49Z" transform="translate(-35.292 -0.23)" fill="#535762"/>
    <path id="패스_353" data-name="패스 353" d="M337.729,553.281c0-.962,1.029-1.433,1.994-1.433,1.008,0,2.058.471,2.058,1.433v12.183c0,1-1.072,1.508-2.058,1.508s-1.994-.509-1.994-1.508Z" transform="translate(-74.803 -0.23)" fill="#535762"/>
    <path id="패스_354" data-name="패스 354" d="M361.24,554.36a2.235,2.235,0,0,1,2.508-2.169,3.376,3.376,0,0,1,3.6,2.546L370.2,562.6l2.744-7.939a3.225,3.225,0,0,1,3.366-2.49c1.479,0,2.508.849,2.508,2.075v11.41c0,1.037-1.008,1.509-1.929,1.509-.965,0-1.994-.453-1.994-1.49v-7.412l-2.551,7.43a2.47,2.47,0,0,1-4.566,0l-2.68-7.43v7.43c0,1.018-1.029,1.49-1.951,1.49-.943,0-1.908-.452-1.908-1.49Z" transform="translate(-91.476 -0.46)" fill="#535762"/>
    <path id="패스_355" data-name="패스 355" d="M430.594,554.921c0-1.867.922-2.489,3.108-2.489h3.066c3.966,0,6.088,1.754,6.088,4.922,0,3.206-2.4,4.979-5.9,4.979h-2.337v3.545c0,1-1.115,1.49-2.079,1.49s-1.951-.49-1.951-1.49Zm5.681,4.432c2.187,0,2.636-.773,2.636-2s-.707-1.9-2.722-1.9h-.965c-.471,0-.643.151-.643.566v3.338Z" transform="translate(-140.656 -0.644)" fill="#535762"/>
    <path id="패스_356" data-name="패스 356" d="M476.076,554.259a1.809,1.809,0,0,1-.45-1.018c0-1.037,1.093-1.679,2.251-1.679a1.662,1.662,0,0,1,1.479.717l3.43,5.205,3.066-5.092a1.679,1.679,0,0,1,1.543-.867c.986,0,2.037.622,2.037,1.452a1.781,1.781,0,0,1-.214.849l-4.5,6.789v4.639c0,.981-1.05,1.471-1.994,1.471-1.008,0-2.036-.49-2.036-1.471v-4.639Z" transform="translate(-172.589)" fill="#535762"/>
  </g>
</svg>
