<svg id="Layer_2" data-name="Layer 2" xmlns="http://www.w3.org/2000/svg" width="36" height="26" viewBox="0 0 36 26">
  <g id="카페테리아">
    <path id="패스_178" data-name="패스 178" d="M24,10a1,1,0,0,0,1-1,2,2,0,0,1,2-2,4,4,0,0,0,4-4,1,1,0,0,0-2,0,2,2,0,0,1-2,2,4,4,0,0,0-4,4A1,1,0,0,0,24,10Z" fill="#4a4a4a"/>
    <path id="패스_179" data-name="패스 179" d="M33,12H21V0H3A3,3,0,0,0,0,3V7a3,3,0,0,0,3,3H4v7a5,5,0,0,0,5,5h6.1A5,5,0,0,0,20,26h7a5,5,0,0,0,5-5V19h1a3,3,0,0,0,3-3V15A3,3,0,0,0,33,12ZM3,8A1,1,0,0,1,2,7V3A1,1,0,0,1,3,2H4V8Zm12,4v8H9a3,3,0,0,1-3-3V2H19V12Zm15,9a3,3,0,0,1-3,3H20a3,3,0,0,1-3-3V14H30Zm4-5a1,1,0,0,1-1,1H32V14h1a1,1,0,0,1,1,1Z" fill="#4a4a4a"/>
  </g>
</svg>
