<svg xmlns="http://www.w3.org/2000/svg" width="32.003" height="26.002" viewBox="0 0 32.003 26.002">
  <g id="Layer_2" data-name="Layer 2" transform="translate(0.002 0.002)">
    <g id="목탁">
      <path id="패스_242" data-name="패스 242" d="M28.39,17.69A11.791,11.791,0,0,0,32,9a1,1,0,0,0-1-1,23.5,23.5,0,0,0-3.08.2,13.606,13.606,0,0,0-1.59-4.83,1,1,0,0,0-1-.45A13.336,13.336,0,0,0,20.59,5a13.409,13.409,0,0,0-4-4.83,1,1,0,0,0-1.12,0,13.409,13.409,0,0,0-4,4.83A13.331,13.331,0,0,0,6.69,2.92a1,1,0,0,0-1,.45A13.6,13.6,0,0,0,4.08,8.2,23.5,23.5,0,0,0,1,8,1,1,0,0,0,0,9a11.791,11.791,0,0,0,3.61,8.69C1.22,18.54,0,19.65,0,21c0,3.44,8.29,5,16,5s16-1.56,16-5C32,19.65,30.78,18.54,28.39,17.69ZM17,20c.62-6.55,6.67-9.67,13-10C29.38,16.54,23.33,19.66,17,20ZM21.58,6.74A12.071,12.071,0,0,1,25,5.07a11.641,11.641,0,0,1,1,3.47A17.434,17.434,0,0,0,22,10a12.733,12.733,0,0,0-.61-3.11A.981.981,0,0,0,21.58,6.74ZM16,2.27A11.642,11.642,0,0,1,20,11a.706.706,0,0,0,0,.13A11.852,11.852,0,0,0,16,16a11.849,11.849,0,0,0-4-4.9.834.834,0,0,0,0-.1A11.49,11.49,0,0,1,16,2.27ZM7,5.07a12.072,12.072,0,0,1,3.38,1.67,1.24,1.24,0,0,0,.24.11A12.688,12.688,0,0,0,10.05,10,17.412,17.412,0,0,0,6,8.54,12.137,12.137,0,0,1,7,5.07ZM2,10c6.33.33,12.38,3.45,13,10C8.67,19.66,2.62,16.54,2,10ZM16,24C6.76,24,2,21.9,2,21c0-.18.65-1,3.47-1.81A18.942,18.942,0,0,0,16,22a18.944,18.944,0,0,0,10.53-2.81C29.35,20,30,20.82,30,21,30,21.9,25.24,24,16,24Z" fill="#4a4a4a"/>
    </g>
  </g>
</svg>
