<svg id="Layer_2" data-name="Layer 2" xmlns="http://www.w3.org/2000/svg" width="36" height="35" viewBox="0 0 36 35">
  <g id="명상">
    <path id="패스_180" data-name="패스 180" d="M18,17a4,4,0,1,0-4-4A4,4,0,0,0,18,17Zm0-6a2,2,0,1,1-2,2A2,2,0,0,1,18,11Z" fill="#4a4a4a"/>
    <path id="패스_181" data-name="패스 181" d="M32,18A14,14,0,1,0,8.43,28.19,3.49,3.49,0,0,0,9.5,35h17a3.49,3.49,0,0,0,1.07-6.81A13.869,13.869,0,0,0,32,18ZM6,18a12,12,0,0,1,24,0,11.88,11.88,0,0,1-3.14,8.05,9.07,9.07,0,0,0-17.72,0A11.88,11.88,0,0,1,6,18Zm4.93,10a7.07,7.07,0,0,1,14.14,0ZM8,31.5A1.5,1.5,0,0,1,9.5,30H17v3H9.5A1.5,1.5,0,0,1,8,31.5ZM26.5,33H19V30h7.5a1.5,1.5,0,0,1,0,3Z" fill="#4a4a4a"/>
    <circle id="타원_111" data-name="타원 111" cx="1" cy="1" r="1" transform="translate(17)" fill="#4a4a4a"/>
    <circle id="타원_112" data-name="타원 112" cx="1" cy="1" r="1" transform="translate(34 16)" fill="#4a4a4a"/>
    <circle id="타원_113" data-name="타원 113" cx="1" cy="1" r="1" transform="translate(0 16)" fill="#4a4a4a"/>
  </g>
</svg>
