<svg id="Layer_2" data-name="Layer 2" xmlns="http://www.w3.org/2000/svg" width="34" height="23" viewBox="0 0 34 23">
  <g id="주차가능">
    <path id="패스_161" data-name="패스 161" d="M29.63,8.06,26.56,2.5A5,5,0,0,0,22.23,0H11.66A5,5,0,0,0,7.31,2.53L4.37,8.06A5,5,0,0,0,0,13v2a5,5,0,0,0,5,5H6v2a1,1,0,0,0,2,0V20H26v2a1,1,0,0,0,2,0V20h1a5,5,0,0,0,5-5V13A5,5,0,0,0,29.63,8.06ZM9.06,3.5A3,3,0,0,1,11.66,2H22.23a3,3,0,0,1,2.59,1.48L27.31,8H6.66ZM32,15a3,3,0,0,1-3,3H5a3,3,0,0,1-3-3V13a3,3,0,0,1,3-3H29a3,3,0,0,1,3,3Z" fill="#4a4a4a"/>
    <path id="패스_162" data-name="패스 162" d="M8,13H6a1,1,0,0,0,0,2H8a1,1,0,0,0,0-2Z" fill="#4a4a4a"/>
    <path id="패스_163" data-name="패스 163" d="M28,13H26a1,1,0,0,0,0,2h2a1,1,0,0,0,0-2Z" fill="#4a4a4a"/>
  </g>
</svg>
