<svg xmlns="http://www.w3.org/2000/svg" width="33.9" height="26" viewBox="0 0 33.9 26">
  <g id="Layer_2" data-name="Layer 2" transform="translate(-0.05)">
    <g id="일출">
      <path id="패스_169" data-name="패스 169" d="M17,5a1,1,0,0,0,1-1V1a1,1,0,0,0-2,0V4A1,1,0,0,0,17,5Z" fill="#4a4a4a"/>
      <path id="패스_170" data-name="패스 170" d="M3,16H6a1,1,0,0,0,0-2H3a1,1,0,0,0,0,2Z" fill="#4a4a4a"/>
      <path id="패스_171" data-name="패스 171" d="M27,15a1,1,0,0,0,1,1h3a1,1,0,0,0,0-2H28A1,1,0,0,0,27,15Z" fill="#4a4a4a"/>
      <path id="패스_172" data-name="패스 172" d="M8.29,7.71A1,1,0,0,0,9.71,6.29L7.59,4.17A1,1,0,0,0,6.17,5.59Z" fill="#4a4a4a"/>
      <path id="패스_173" data-name="패스 173" d="M25.71,7.71l2.12-2.12a1,1,0,1,0-1.42-1.42L24.29,6.29a1,1,0,0,0,1.42,1.42Z" fill="#4a4a4a"/>
      <path id="패스_174" data-name="패스 174" d="M33.59,22.45A27.551,27.551,0,0,0,24.4,18,8,8,0,1,0,9.6,18,27.551,27.551,0,0,0,.41,22.45a1,1,0,0,0,1.18,1.61,26,26,0,0,1,30.82,0,1,1,0,0,0,1.18-1.61Zm-22-4.91a6,6,0,1,1,10.84,0A28.7,28.7,0,0,0,17,17a28.747,28.747,0,0,0-5.42.54Z" fill="#4a4a4a"/>
      <path id="패스_175" data-name="패스 175" d="M26,24H8a1,1,0,0,0,0,2H26a1,1,0,0,0,0-2Z" fill="#4a4a4a"/>
    </g>
  </g>
</svg>
