<svg xmlns="http://www.w3.org/2000/svg" width="30" height="30.001" viewBox="0 0 30 30.001">
  <g id="Layer_2" data-name="Layer 2" transform="translate(0)">
    <g id="다도" transform="translate(0)">
      <path id="패스_176" data-name="패스 176" d="M29.931,12.018a.882.882,0,0,0-.812-.547H24.707a.881.881,0,0,0-.626.256l-2.9,2.938a4.266,4.266,0,0,0-.882-2.312h0V6.177A6.177,6.177,0,0,0,14.118,0H7.059A6.177,6.177,0,0,0,.882,6.177v6.177h0A4.343,4.343,0,0,0,0,15V25.589a4.343,4.343,0,0,0,.882,2.647h0A.882.882,0,1,0,.882,30H27.354a.882.882,0,1,0,0-1.765H23.613a7.059,7.059,0,0,0,4.624-6.618V18.53a.883.883,0,0,0-.882-.882H25.069l4.677-4.668A.882.882,0,0,0,29.931,12.018ZM7.059,1.765h7.059A4.412,4.412,0,0,1,18.53,6.177v4.783a4.355,4.355,0,0,0-1.765-.371V9.706a2.647,2.647,0,0,0-2.647-2.647h-.882V6.177a2.647,2.647,0,0,0-5.294,0v.882H7.059A2.647,2.647,0,0,0,4.412,9.706v.882a4.355,4.355,0,0,0-1.765.371V6.177A4.412,4.412,0,0,1,7.059,1.765Zm4.412,5.294H9.706V6.177a.882.882,0,1,1,1.765,0Zm2.647,1.765A.883.883,0,0,1,15,9.706v.882H6.177V9.706a.883.883,0,0,1,.882-.882ZM4.412,28.237a2.647,2.647,0,0,1-2.647-2.647h0V15a2.647,2.647,0,0,1,2.647-2.647H16.765A2.647,2.647,0,0,1,19.413,15v2.647H15a.883.883,0,0,0-.882.882v3.088a7.06,7.06,0,0,0,3.477,6.071,8.085,8.085,0,0,1-1.015.547Zm22.06-6.618a5.294,5.294,0,0,1-10.589,0V19.413H26.472ZM22.58,17.648h-1.4v-.521l3.891-3.891h1.924Z" transform="translate(0)" fill="#4a4a4a"/>
    </g>
  </g>
</svg>
