<svg xmlns="http://www.w3.org/2000/svg" width="28" height="28" viewBox="0 0 28 28">
  <g id="Layer_2" data-name="Layer 2" transform="translate(0)">
    <g id="수련복" transform="translate(0 0)">
      <path id="패스_164" data-name="패스 164" d="M27.3,5.25l-4-.8L20.877.429A.874.874,0,0,0,20.125,0H7.875a.874.874,0,0,0-.752.429L4.7,4.471.7,5.25a.874.874,0,0,0-.7.875v17.5A4.375,4.375,0,0,0,4.375,28h19.25A4.375,4.375,0,0,0,28,23.625V6.125A.874.874,0,0,0,27.3,5.25ZM14,8.19,9.362,1.75h9.266ZM1.75,6.842l3.675-.717A.877.877,0,0,0,6,5.714L7.875,2.625l5.04,7.052L1.995,24.71a2.528,2.528,0,0,1-.245-1.085Zm24.5,16.782a2.625,2.625,0,0,1-2.625,2.625H4.375a2.621,2.621,0,0,1-1.137-.271L20.125,2.625,21.971,5.7a.876.876,0,0,0,.6.429l3.675.735Z" transform="translate(0 0)" fill="#4a4a4a"/>
    </g>
  </g>
</svg>
