<svg xmlns="http://www.w3.org/2000/svg" width="52.565" height="62.652" viewBox="0 0 52.565 62.652">
  <g id="그룹_174" data-name="그룹 174" transform="translate(-9.029 -11.004)">
    <path id="패스_73" data-name="패스 73" d="M60.294,11.892a3.766,3.766,0,0,0-5.307.448l0,0L27.752,44.886l-12.241-13.9a3.766,3.766,0,0,0-5.65,4.972L22.216,49.971a7.539,7.539,0,0,0,5.537,2.448h0a7.542,7.542,0,0,0,5.5-2.674l27.457-32.58A3.769,3.769,0,0,0,60.294,11.892Z" transform="translate(0 0)" fill="#fb3959"/>
  </g>
  <path id="패스_357" data-name="패스 357" d="M3663.58-241.013c0-.08,0-.159,0-.239a17.282,17.282,0,0,0-17.282-17.282,17.283,17.283,0,0,0-17.282,17.282,17.283,17.283,0,0,0,17.282,17.282,17.376,17.376,0,0,0,3.1-.278c-.222.876-1.046,3.055-4.127,5.726-1.1.952-.634,1.9,1.412,1.024a28.892,28.892,0,0,0,12.632-10.387c4.462-6.766,4.259-11.94,4.259-13.128Z" transform="translate(-3627.019 278.796)" fill="none" stroke="#fb3959" stroke-miterlimit="10" stroke-width="2"/>
</svg>
