<svg xmlns="http://www.w3.org/2000/svg" width="22" height="22" viewBox="0 0 22 22">
  <path id="패스_525" data-name="패스 525" d="M31.468,60.838a4.813,4.813,0,0,0-1.423-3.8l-3.358-2.8V51.187a.687.687,0,1,0-1.374,0v1.9L23.9,51.91a4.807,4.807,0,0,0-6.76-.042L10.91,57.076A4.757,4.757,0,0,0,9.531,60.81L9.5,68.376c0,2.467,1.934,4.124,4.813,4.124H26.687c2.879,0,4.813-1.657,4.813-4.128Zm-7.485,4.005-1.926,1.926a2.252,2.252,0,0,1-3.114,0l-1.926-1.926a2.2,2.2,0,0,1,3.023-3.2l.459.411.459-.411a2.2,2.2,0,0,1,3.023,3.2Z" transform="translate(-9.5 -50.5)" fill="#222"/>
</svg>
