<svg xmlns="http://www.w3.org/2000/svg" width="22" height="22" viewBox="0 0 22 22">
  <g id="그룹_323" data-name="그룹 323" transform="translate(-63.5 -63.5)">
    <path id="패스_291" data-name="패스 291" d="M85.466,73.868a4.815,4.815,0,0,0-1.421-3.833l-3.357-2.8V64.188a.688.688,0,1,0-1.375,0v1.9L77.9,64.91a4.781,4.781,0,0,0-3.4-1.41,4.731,4.731,0,0,0-3.357,1.368L64.91,70.076a4.754,4.754,0,0,0-1.378,3.734L63.5,81.375c0,2.467,1.934,4.125,4.813,4.125H80.688c2.878,0,4.812-1.658,4.812-4.128ZM80.688,84.125H68.313c-1.662,0-3.438-.722-3.438-2.747l.03-7.621a3.407,3.407,0,0,1,.931-2.667l6.234-5.208a3.415,3.415,0,0,1,2.43-1.007,3.467,3.467,0,0,1,2.476,1.049l6.142,5.124a3.467,3.467,0,0,1,.975,2.767l.032,7.56C84.125,83.4,82.349,84.125,80.688,84.125Z" fill="#222"/>
    <path id="패스_292" data-name="패스 292" d="M74.5,73.743a3.147,3.147,0,0,0-3.865,4.912l1.64,1.64a3.151,3.151,0,0,0,4.45,0l1.64-1.64A3.147,3.147,0,0,0,74.5,73.743Zm2.892,3.94-1.639,1.64a1.776,1.776,0,0,1-2.506,0l-1.639-1.64a1.772,1.772,0,0,1,1.252-3.025,1.742,1.742,0,0,1,1.181.451.688.688,0,0,0,.918,0,1.772,1.772,0,0,1,2.433,2.574Z" fill="#222"/>
  </g>
</svg>
