<svg xmlns="http://www.w3.org/2000/svg" width="21.71" height="22.485" viewBox="0 0 21.71 22.485">
  <g id="그룹_324" data-name="그룹 324" transform="translate(-57 62.982)">
    <path id="패스_323" data-name="패스 323" d="M66.75-53.982h1.5A3.75,3.75,0,0,0,72-57.732v-1.5a3.75,3.75,0,0,0-3.75-3.75h-1.5A3.75,3.75,0,0,0,63-59.232v1.5A3.75,3.75,0,0,0,66.75-53.982Z" transform="translate(0.355)" fill="#fb3959"/>
    <path id="패스_324" data-name="패스 324" d="M74.058-51.732H61.652A4.583,4.583,0,0,0,57-47.232v1.5a4.584,4.584,0,0,0,4.652,4.5H74.058a4.584,4.584,0,0,0,4.652-4.5v-1.5A4.583,4.583,0,0,0,74.058-51.732Zm-15.507,4.5" transform="translate(0 0.735)" fill="#fb3959"/>
  </g>
</svg>
