<svg id="Layer_2" data-name="Layer 2" xmlns="http://www.w3.org/2000/svg" width="21.712" height="22.487" viewBox="0 0 21.712 22.487">
  <g id="my_page_profile" data-name="my page profile">
    <path id="패스_150" data-name="패스 150" d="M11.877,9.305h1.551a3.877,3.877,0,0,0,3.877-3.877V3.877A3.877,3.877,0,0,0,13.428,0H11.877A3.877,3.877,0,0,0,8,3.877V5.428a3.877,3.877,0,0,0,3.877,3.877ZM9.551,3.877a2.326,2.326,0,0,1,2.326-2.326h1.551a2.326,2.326,0,0,1,2.326,2.326V5.428a2.326,2.326,0,0,1-2.326,2.326H11.877A2.326,2.326,0,0,1,9.551,5.428Z" transform="translate(-1.797)" fill="#fb3959"/>
    <path id="패스_151" data-name="패스 151" d="M17.059,15H4.653A4.653,4.653,0,0,0,0,19.653V21.2a4.653,4.653,0,0,0,4.653,4.653H17.059A4.653,4.653,0,0,0,21.712,21.2V19.653A4.653,4.653,0,0,0,17.059,15Zm3.1,6.2a3.1,3.1,0,0,1-3.1,3.1H4.653a3.1,3.1,0,0,1-3.1-3.1V19.653a3.1,3.1,0,0,1,3.1-3.1H17.059a3.1,3.1,0,0,1,3.1,3.1Z" transform="translate(0 -3.369)" fill="#fb3959"/>
  </g>
</svg>
