<svg xmlns="http://www.w3.org/2000/svg" width="21" height="21" viewBox="0 0 21 21">
  <g id="그룹_434" data-name="그룹 434" transform="translate(-60.5 -59.5)">
    <path id="패스_293" data-name="패스 293" d="M77.563,64.094H64.438a.656.656,0,1,0,0,1.312H77.563a.656.656,0,0,0,0-1.312Z" fill="#fb3959"/>
    <path id="패스_294" data-name="패스 294" d="M73.625,68.031H64.438a.657.657,0,1,0,0,1.313h9.187a.657.657,0,0,0,0-1.313Z" fill="#fb3959"/>
    <path id="패스_295" data-name="패스 295" d="M78.219,59.5H63.781A3.285,3.285,0,0,0,60.5,62.781V77.219A3.285,3.285,0,0,0,63.781,80.5H78.219A3.285,3.285,0,0,0,81.5,77.219V62.781A3.285,3.285,0,0,0,78.219,59.5Zm1.969,17.719a1.972,1.972,0,0,1-1.969,1.969H63.781a1.971,1.971,0,0,1-1.968-1.969V62.781a1.97,1.97,0,0,1,1.968-1.968H78.219a1.971,1.971,0,0,1,1.969,1.968Z" fill="#fb3959"/>
  </g>
</svg>
