<svg xmlns="http://www.w3.org/2000/svg" width="141.217" height="25.653" viewBox="0 0 141.217 25.653">
  <g id="그룹_414" data-name="그룹 414" transform="translate(-232.242 -551.524)">
    <path id="패스_501" data-name="패스 501" d="M547.168,562.385c0-.049,0-.1,0-.148a10.7,10.7,0,1,0-8.788,10.54,7.4,7.4,0,0,1-2.558,3.549c-.681.591-.393,1.18.875.635a17.911,17.911,0,0,0,7.831-6.438,13.925,13.925,0,0,0,2.64-8.138Z" transform="translate(-173.711)" fill="#fb3959"/>
    <path id="패스_502" data-name="패스 502" d="M243.68,566.72c0-1.032-.632-1.641-2.707-2.17l-2.858-.741c-2.857-.714-5.294-2.381-5.294-5.716s3.1-6.245,8.633-6.245a11.973,11.973,0,0,1,6.678,1.667c2.527,1.746.06,5.292-2.707,3.678a7.883,7.883,0,0,0-3.82-1.111c-1.745,0-3.008.741-3.008,1.72,0,.794.271,1.4,2.045,1.879l2.8.715c3.459.846,6.106,2.514,6.106,5.821,0,3.864-3.339,6.907-8.933,6.907-3.1,0-5.806-.794-7.43-2.17-2.527-2.117.542-5.425,3.309-3.6a7.6,7.6,0,0,0,4.091,1.244C242.958,568.6,243.68,567.646,243.68,566.72Z" transform="translate(0 -0.192)" fill="#fb3959"/>
    <path id="패스_503" data-name="패스 503" d="M282.01,553.859c0-1.35,1.474-2.011,2.827-2.011,1.384,0,2.828.662,2.828,2.011v5.848h7.61v-5.848c0-1.35,1.474-2.011,2.857-2.011s2.828.662,2.828,2.011v17.094c0,1.376-1.444,2.064-2.8,2.09-1.414.027-2.888-.635-2.888-2.09v-6.986h-7.61v6.986c0,1.376-1.444,2.064-2.8,2.09-1.414.027-2.857-.635-2.857-2.09Z" transform="translate(-29.455 -0.192)" fill="#fb3959"/>
    <path id="패스_504" data-name="패스 504" d="M337.729,553.859c0-1.35,1.444-2.011,2.8-2.011,1.414,0,2.888.662,2.888,2.011v17.094c0,1.4-1.5,2.117-2.888,2.117s-2.8-.714-2.8-2.117Z" transform="translate(-62.433 -0.192)" fill="#fb3959"/>
    <path id="패스_505" data-name="패스 505" d="M361.24,555.242c0-1.746,1.324-3.017,3.519-3.043,3.038-.027,4.271,1.455,5.053,3.572l4,11.035,3.85-11.14a4.525,4.525,0,0,1,4.723-3.493c2.075,0,3.519,1.191,3.519,2.911v16.009c0,1.455-1.414,2.117-2.707,2.117-1.354,0-2.8-.635-2.8-2.091v-10.4l-3.579,10.426c-.963,2.858-5.385,2.858-6.407,0l-3.76-10.426v10.426c0,1.429-1.444,2.09-2.737,2.09-1.324,0-2.677-.635-2.677-2.09Z" transform="translate(-76.348 -0.384)" fill="#fb3959"/>
    <path id="패스_506" data-name="패스 506" d="M430.594,555.925c0-2.62,1.293-3.493,4.361-3.493h4.3c5.565,0,8.543,2.461,8.543,6.907,0,4.5-3.369,6.986-8.272,6.986h-3.279V571.3c0,1.4-1.564,2.09-2.918,2.09s-2.737-.688-2.737-2.09Zm7.971,6.218c3.068,0,3.7-1.085,3.7-2.8s-.993-2.673-3.82-2.673h-1.354c-.662,0-.9.212-.9.794v4.684Z" transform="translate(-117.396 -0.537)" fill="#fb3959"/>
    <path id="패스_507" data-name="패스 507" d="M476.258,555.361a2.538,2.538,0,0,1-.632-1.429c0-1.455,1.534-2.355,3.159-2.355a2.332,2.332,0,0,1,2.075,1.006l4.813,7.3,4.3-7.145a2.355,2.355,0,0,1,2.166-1.217c1.384,0,2.858.873,2.858,2.037a2.5,2.5,0,0,1-.3,1.191l-6.317,9.526v6.51c0,1.376-1.474,2.064-2.8,2.064-1.414,0-2.857-.688-2.857-2.064v-6.51Z" transform="translate(-144.048)" fill="#fb3959"/>
  </g>
</svg>
