<svg xmlns="http://www.w3.org/2000/svg" width="6.44" height="11.749" viewBox="0 0 6.44 11.749">
  <g id="더_보기_미니" data-name="더 보기 미니" transform="translate(0)">
    <path id="패스_35" data-name="패스 35" d="M-150.47,13.4l-5.259,5.259a.561.561,0,0,1-.794,0,.561.561,0,0,1,0-.794l4.916-4.916-4.916-4.916a.561.561,0,0,1,0-.794.561.561,0,0,1,.794,0l5.259,5.259a.548.548,0,0,1,.06.049.559.559,0,0,1,.164.4.559.559,0,0,1-.164.4A.566.566,0,0,1-150.47,13.4Z" transform="translate(156.686 -7.07)" fill="#a8a8a8"/>
  </g>
</svg>
